<svg width="20" height="20" viewBox="0 0 20 20" fill="none" xmlns="http://www.w3.org/2000/svg">
<path fill-rule="evenodd" clip-rule="evenodd" d="M18.9743 6.36027L2.05511 0.0886618L2.03972 0.083853C1.4841 -0.107454 0.868028 0.0343828 0.451996 0.449393C0.0359631 0.864404 -0.107389 1.48012 0.0825506 2.03622C0.0837199 2.04147 0.0853286 2.04662 0.0873594 2.0516L6.36377 18.9708C6.5752 19.5895 7.15933 20.0031 7.81314 19.997H7.84199C8.5094 19.9919 9.09504 19.5511 9.28462 18.9112L11.5505 11.548L18.9137 9.28208C19.5483 9.08681 19.9861 8.50654 19.9996 7.84273C20.0132 7.17891 19.5994 6.58127 18.9733 6.36027H18.9743ZM18.4617 7.81156L11.0985 10.0775C10.6118 10.2274 10.2309 10.6083 10.081 11.095L7.81506 18.4582L7.80929 18.4418L1.5348 1.53129L18.4444 7.80386L18.4598 7.80963L18.4617 7.81156Z" fill="white"/>
</svg>
