<svg width="19" height="19" viewBox="0 0 19 19" fill="none" xmlns="http://www.w3.org/2000/svg">
<path fill-rule="evenodd" clip-rule="evenodd" d="M17.48 9.88V17.48C17.48 18.3195 16.7995 19 15.96 19H1.52C0.680527 19 0 18.3195 0 17.48V3.04C0 2.20053 0.680527 1.52 1.52 1.52H9.12C9.53974 1.52 9.88 1.86026 9.88 2.28C9.88 2.69974 9.53974 3.04 9.12 3.04H1.52V17.48H15.96V9.88C15.96 9.46026 16.3003 9.12 16.72 9.12C17.1397 9.12 17.48 9.46026 17.48 9.88ZM19 3.42C19 5.30881 17.4688 6.84 15.58 6.84C13.6912 6.84 12.16 5.30881 12.16 3.42C12.16 1.53119 13.6912 0 15.58 0C17.4688 0 19 1.53119 19 3.42ZM17.48 3.42C17.48 2.37066 16.6293 1.52 15.58 1.52C14.5307 1.52 13.68 2.37066 13.68 3.42C13.68 4.46934 14.5307 5.32 15.58 5.32C16.6293 5.32 17.48 4.46934 17.48 3.42Z" fill="#0F1C0D"/>
</svg>
